<svg width="670" height="670" viewBox="0 0 670 670" fill="none" xmlns="http://www.w3.org/2000/svg">
<path fill-rule="evenodd" clip-rule="evenodd" d="M272.188 622.889C379.15 622.889 465.859 536.18 465.859 429.218C465.859 322.258 379.15 235.547 272.188 235.547C165.225 235.547 78.5156 322.258 78.5156 429.218C78.5156 536.18 165.225 622.889 272.188 622.889Z" fill="#663399"/>
<path d="M538.473 173.278C533.878 171.057 529.481 168.236 525.394 164.806C521.176 161.266 517.538 157.288 514.496 152.996L409.481 278.147C417.287 285.245 424.54 292.942 431.167 301.16L538.473 173.278Z" fill="#663399"/>
<path d="M605.874 149.266C587.293 171.411 554.276 174.3 532.13 155.718C509.986 137.136 507.097 104.12 525.678 81.9743C544.259 59.8291 577.277 56.9406 599.423 75.5228C621.566 94.1049 624.456 127.121 605.874 149.266Z" fill="#663399"/>
<path d="M587.255 588.953C568.674 611.1 535.657 613.989 513.511 595.405C491.367 576.824 488.478 543.806 507.059 521.663C525.643 499.517 558.657 496.627 580.804 515.211C602.95 533.793 605.837 566.81 587.255 588.953Z" fill="#663399"/>
<path d="M287.891 181.213C282.871 182.505 277.61 183.192 272.187 183.192C266.765 183.192 261.504 182.505 256.484 181.213V225.662C261.667 225.267 266.904 225.067 272.187 225.067C277.471 225.067 282.709 225.267 287.891 225.662V181.213Z" fill="#663399"/>
<path d="M498.255 515.771C495.29 519.704 492.744 524.056 490.709 528.783C488.454 534.017 486.968 539.388 486.201 544.773L450.183 529.268C455.3 520.182 459.744 510.665 463.443 500.782L498.255 515.771Z" fill="#663399"/>
<path d="M312.75 154.501C294.168 176.646 261.151 179.534 239.006 160.952C216.86 142.37 213.972 109.354 232.554 87.2087C251.136 65.0635 284.152 62.175 306.298 80.7571C328.442 99.3393 331.331 132.355 312.75 154.501Z" fill="#663399"/>
</svg>
