<svg width="24" height="24" viewBox="0 0 24 24" fill="none" xmlns="http://www.w3.org/2000/svg">
<path fill-rule="evenodd" clip-rule="evenodd" d="M9.75 22.3123C13.5815 22.3123 16.6875 19.2063 16.6875 15.3748C16.6875 11.5434 13.5815 8.43734 9.75 8.43734C5.91852 8.43734 2.8125 11.5434 2.8125 15.3748C2.8125 19.2063 5.91852 22.3123 9.75 22.3123ZM14.8125 15.2512H10.3731V16.7626H13.0521C12.9778 17.5125 12.623 18.1566 11.9875 18.6949C11.3519 19.2286 10.6352 19.4954 9.83735 19.4954C8.90031 19.4954 8.03053 19.1388 7.22801 18.4257C6.36982 17.6574 5.94073 16.6797 5.94073 15.4927C5.94073 14.3426 6.32575 13.3856 7.0958 12.6219C7.86585 11.8444 8.81913 11.4556 9.95564 11.4556C11.222 11.4556 12.2959 12.0376 13.1773 13.2016L14.3324 12.1043C13.6598 11.3406 12.9755 10.7885 12.2797 10.448C11.5514 10.1076 10.7674 9.93734 9.92781 9.93734C8.36452 9.93734 7.03782 10.4779 5.94769 11.5591C4.85756 12.6357 4.3125 13.9469 4.3125 15.4927C4.3125 17.0064 4.84829 18.3038 5.91986 19.385C6.99143 20.4616 8.2787 20.9998 9.78169 20.9998C11.3218 20.9998 12.5905 20.4431 13.5878 19.3298C14.0285 18.8329 14.3417 18.2992 14.5272 17.7287C14.7174 17.1122 14.8125 16.4037 14.8125 15.6032V15.2512Z" fill="#663399"/>
<path d="M19.289 6.20692C19.1244 6.12737 18.9669 6.02634 18.8205 5.90346C18.6694 5.77664 18.5391 5.63417 18.4301 5.48042L14.6684 9.96344C14.948 10.2177 15.2078 10.4934 15.4452 10.7878L19.289 6.20692Z" fill="#663399"/>
<path d="M21.7029 5.34663C21.0373 6.13989 19.8546 6.24336 19.0613 5.57773C18.2681 4.91211 18.1646 3.72944 18.8302 2.93617C19.4958 2.14291 20.6785 2.03944 21.4718 2.70507C22.265 3.3707 22.3685 4.55336 21.7029 5.34663Z" fill="#663399"/>
<path d="M21.0362 21.0966C20.3706 21.8899 19.1879 21.9934 18.3946 21.3277C17.6014 20.6621 17.4979 19.4794 18.1635 18.6862C18.8292 17.8929 20.0118 17.7894 20.8051 18.4551C21.5984 19.1207 21.7018 20.3034 21.0362 21.0966Z" fill="#663399"/>
<path d="M10.3125 6.49148C10.1327 6.53775 9.94423 6.56236 9.75 6.56236C9.55577 6.56236 9.36729 6.53775 9.1875 6.49148V8.08368C9.37315 8.06955 9.56074 8.06236 9.75 8.06236C9.93927 8.06236 10.1269 8.06955 10.3125 8.08368V6.49148Z" fill="#663399"/>
<path d="M17.8475 18.4754C17.7413 18.6163 17.6501 18.7722 17.5772 18.9415C17.4964 19.129 17.4432 19.3214 17.4157 19.5143L16.1255 18.9589C16.3088 18.6334 16.468 18.2925 16.6005 17.9385L17.8475 18.4754Z" fill="#663399"/>
<path d="M11.2029 5.53413C10.5373 6.32739 9.35459 6.43086 8.56133 5.76523C7.76806 5.09961 7.66459 3.91694 8.33022 3.12367C8.99585 2.33041 10.1785 2.22694 10.9718 2.89257C11.765 3.5582 11.8685 4.74086 11.2029 5.53413Z" fill="#663399"/>
</svg>
